<svg xmlns="http://www.w3.org/2000/svg" width="28" height="44" viewBox="0 0 28 44" fill="none">
<path fill-rule="evenodd" clip-rule="evenodd" d="M4.37114e-07 39C1.95703e-07 41.7614 2.23857 44 5 44L23 44C25.7614 44 28 41.7614 28 39L28 5C28 2.23857 25.7614 -1.95703e-07 23 -4.37114e-07L5 -2.01072e-06C2.23858 -2.25214e-06 3.6509e-06 2.23857 3.40949e-06 5L3.37661e-06 5.37607C3.14731e-06 7.99899 2.11441 10.0798 4.46336 11.2469C8.41506 13.2104 11.1309 17.288 11.1309 22C11.1309 26.712 8.41506 30.7896 4.46335 32.7531C2.1144 33.9202 6.99294e-07 36.001 4.69991e-07 38.6239L4.37114e-07 39Z" fill="white"/>
</svg>